# xmcd CD database file generated by OrangeCD 5.2
#
# Track frame offsets:
#	150
#	29650
#	55082
#	74007
#	92727
#	111547
#	133970
#	150582
#	169160
#	188302
#	207327
#	223922
#	255062
#
# Disc length: 3615 seconds
#
# Revision: 1
# Processed by: cddbd v1.5.1PL0 Copyright (c) Steve Scherf et al.
# Submitted via: OrangeCD 5.2
#
DISCID=bf0e1d0d
DTITLE=Various Artist - Pledging My Love
DYEAR=1996
DGENRE=R&B Compilation
TTITLE0=Billy Paul - Your Song 
TTITLE1=The Isley Brothers - For The Love Of You  Part 1 and 2
TTITLE2=Johnnie Taylor - Your Love Is Rated X 
TTITLE3=Tyrone Davis - In The Mood 
TTITLE4=Gladys Knight and The Pips - Heaven Sent 
TTITLE5=Marvin Gaye - 'Til Tomorrow
TTITLE6=Harold Melvin and The Blue Notes and Sharon Paige - Hope That We Can Be Tog
TTITLE6=ether Soon  
TTITLE7=Earth, Wind and Fire - Can't  Hide Love 
TTITLE8=Bill Withers - Lovely Day 
TTITLE9=The Manhattans - You Send Me 
TTITLE10=The Emotions - Best Of My Love 
TTITLE11=The O'Jays - Family Reunion 
TTITLE12=Peaches and Herb - Ten Commandments Of Love 
EXTD=
EXTT0=
EXTT1=
EXTT2=
EXTT3=
EXTT4=
EXTT5=
EXTT6=
EXTT7=
EXTT8=
EXTT9=
EXTT10=
EXTT11=
EXTT12=
PLAYORDER=
